<svg width="50" height="50" viewBox="0 0 50 50" fill="none" xmlns="http://www.w3.org/2000/svg">
<path d="M18.751 5.6665C23.2363 5.6665 26.9107 9.20099 27.1357 13.6313L27.1475 14.062C27.1269 18.6066 23.5836 22.2697 19.0693 22.437H19.0332C18.8427 22.4186 18.6523 22.4192 18.4766 22.4331C13.8533 22.2357 10.3555 18.5725 10.3555 14.062C10.3556 9.43236 14.1213 5.66668 18.751 5.6665Z" stroke="black" stroke-width="3"/>
<path d="M18.7744 28.0728C22.374 28.0728 25.8909 28.9877 28.5 30.7271C30.8132 32.2692 31.899 34.2243 31.915 36.1782C31.9107 38.1337 30.8161 40.0838 28.4961 41.6499C25.8768 43.4085 22.3511 44.3334 18.749 44.3335C15.1469 44.3335 11.6213 43.4086 9.00195 41.6499L8.99707 41.6479L8.57617 41.353C6.54302 39.8559 5.58215 38.025 5.58203 36.2085C5.58203 34.2706 6.67551 32.2973 9.01367 30.73C11.6457 28.9878 15.1754 28.0728 18.7744 28.0728Z" stroke="black" stroke-width="3"/>
<path d="M33.6934 9.97266C36.9494 9.69167 39.8634 12.1205 40.1494 15.4141V15.415C40.4152 18.638 38.1479 21.4376 35.0176 21.8535C34.9766 21.8532 34.7446 21.8449 34.4629 21.9004C33.4648 21.9333 32.5333 21.7436 31.7139 21.374C33.3687 19.2596 34.2467 16.5325 34.0146 13.6309L34.0137 13.6211L33.9766 13.2568C33.8405 12.121 33.5314 11.048 33.0889 10.0566C33.2868 10.0198 33.4888 9.99086 33.6934 9.97266Z" stroke="black" stroke-width="3"/>
<path d="M34.1348 27.5488C37.128 27.6527 40.1064 28.5928 42.1611 30.251L42.1631 30.252C43.8021 31.5703 44.4456 33.0552 44.3174 34.4229V34.4307L44.3164 34.4395C44.2011 35.8368 43.3083 37.1957 41.4648 38.2061L41.4629 38.207C40.4692 38.7535 39.3109 39.1496 38.0723 39.3877C38.526 38.4654 38.8136 37.4783 38.9092 36.4512L38.9102 36.4424V36.4336C39.1676 33.2418 37.624 30.3141 34.877 28.1025L34.8672 28.0947L34.5762 27.8701C34.4311 27.7605 34.2837 27.6538 34.1348 27.5488Z" stroke="black" stroke-width="3"/>
</svg>
