<svg width="33" height="33" viewBox="0 0 33 33" fill="none" xmlns="http://www.w3.org/2000/svg">
<path d="M12.375 2.75C8.7725 2.75 5.84375 5.67875 5.84375 9.28125C5.84375 12.815 8.6075 15.675 12.21 15.7987C12.32 15.785 12.43 15.785 12.5125 15.7987C12.54 15.7987 12.5537 15.7987 12.5812 15.7987C12.595 15.7987 12.595 15.7987 12.6088 15.7987C16.1287 15.675 18.8925 12.815 18.9062 9.28125C18.9062 5.67875 15.9775 2.75 12.375 2.75Z" fill="#292D32"/>
<path d="M19.3603 19.4562C15.5241 16.8987 9.26781 16.8987 5.40406 19.4562C3.65781 20.625 2.69531 22.2062 2.69531 23.8975C2.69531 25.5887 3.65781 27.1562 5.39031 28.3112C7.31531 29.6037 9.84531 30.25 12.3753 30.25C14.9053 30.25 17.4353 29.6037 19.3603 28.3112C21.0928 27.1425 22.0553 25.575 22.0553 23.87C22.0416 22.1787 21.0928 20.6112 19.3603 19.4562Z" fill="#292D32"/>
<path d="M27.4873 10.0925C27.7073 12.76 25.8098 15.0975 23.1836 15.4138C23.1698 15.4138 23.1698 15.4138 23.1561 15.4138H23.1148C23.0323 15.4138 22.9498 15.4138 22.8811 15.4413C21.5473 15.51 20.3236 15.0838 19.4023 14.3C20.8186 13.035 21.6298 11.1375 21.4648 9.07501C21.3686 7.96126 20.9836 6.94377 20.4061 6.07752C20.9286 5.81627 21.5336 5.65127 22.1523 5.59627C24.8473 5.36252 27.2536 7.37002 27.4873 10.0925Z" fill="#292D32"/>
<path d="M30.2344 22.8112C30.1244 24.145 29.2719 25.3 27.8419 26.0837C26.4669 26.84 24.7344 27.1975 23.0156 27.1562C24.0056 26.2625 24.5831 25.1487 24.6931 23.9662C24.8306 22.2612 24.0194 20.625 22.3969 19.3187C21.4756 18.59 20.4031 18.0125 19.2344 17.5862C22.2731 16.7062 26.0956 17.2975 28.4469 19.195C29.7119 20.2125 30.3581 21.4912 30.2344 22.8112Z" fill="#292D32"/>
</svg>
