<svg width="45" height="45" viewBox="0 0 45 45" fill="none" xmlns="http://www.w3.org/2000/svg">
<path d="M16.875 11.25C14.8125 11.25 13.125 12.9375 13.125 15C13.125 17.0625 14.8125 18.75 16.875 18.75C18.9375 18.75 20.625 17.0625 20.625 15" stroke="#292D32" stroke-width="3" stroke-linecap="round" stroke-linejoin="round"/>
<path d="M3.75 24.3562V28.125C3.75 37.5 7.5 41.25 16.875 41.25H28.125C37.5 41.25 41.25 37.5 41.25 28.125V18.75" stroke="#292D32" stroke-width="3" stroke-linecap="round" stroke-linejoin="round"/>
<path d="M24.375 3.75H16.875C7.5 3.75 3.75 7.5 3.75 16.875" stroke="#292D32" stroke-width="3" stroke-linecap="round" stroke-linejoin="round"/>
<path d="M29.5312 9.375H39.8438" stroke="#292D32" stroke-width="3" stroke-linecap="round"/>
<path d="M34.6875 14.5312V4.21875" stroke="#292D32" stroke-width="3" stroke-linecap="round"/>
<path d="M5.00781 35.5311L14.2516 29.3248C15.7328 28.3311 17.8703 28.4436 19.2016 29.5873L19.8203 30.1311C21.2828 31.3873 23.6453 31.3873 25.1078 30.1311L32.9078 23.4373C34.3703 22.1811 36.7328 22.1811 38.1953 23.4373L41.2516 26.0623" stroke="#292D32" stroke-width="3" stroke-linecap="round" stroke-linejoin="round"/>
</svg>
