<svg width="51" height="51" viewBox="0 0 51 51" fill="none" xmlns="http://www.w3.org/2000/svg">
<path d="M25.5 4.25C13.7912 4.25 4.25 13.7912 4.25 25.5C4.25 37.2088 13.7912 46.75 25.5 46.75C37.2088 46.75 46.75 37.2088 46.75 25.5C46.75 13.7912 37.2088 4.25 25.5 4.25ZM34 27.0938H27.0938V34C27.0938 34.8713 26.3713 35.5938 25.5 35.5938C24.6287 35.5938 23.9062 34.8713 23.9062 34V27.0938H17C16.1287 27.0938 15.4062 26.3713 15.4062 25.5C15.4062 24.6287 16.1287 23.9062 17 23.9062H23.9062V17C23.9062 16.1287 24.6287 15.4062 25.5 15.4062C26.3713 15.4062 27.0938 16.1287 27.0938 17V23.9062H34C34.8713 23.9062 35.5938 24.6287 35.5938 25.5C35.5938 26.3713 34.8713 27.0938 34 27.0938Z" fill="#5245B5"/>
</svg>
