<svg width="44" height="51" viewBox="0 0 44 51" fill="none" xmlns="http://www.w3.org/2000/svg">
<path d="M43.0764 39.7446C42.3152 41.4766 41.3749 43.1282 40.2699 44.6737C38.7938 46.7318 37.5816 48.1539 36.6525 48.9455C35.2093 50.2388 33.659 50.9043 32.0015 50.9418C30.814 50.9418 29.3791 50.6118 27.7079 49.941C26.0311 49.2728 24.4918 48.9455 23.0816 48.9455C21.6055 48.9455 20.0222 49.2728 18.3262 49.941C16.633 50.6118 15.2641 50.9633 14.2168 50.9955C12.6307 51.0626 11.0447 50.381 9.46411 48.9455C8.4553 48.0868 7.1936 46.611 5.67902 44.5234C4.05723 42.299 2.72406 39.7097 1.67952 36.7661C0.560755 33.5811 0 30.5007 0 27.5169C0 24.1011 0.75592 21.1522 2.27051 18.6836C3.41606 16.7448 5.0538 15.1267 7.02593 13.9852C8.97061 12.8466 11.1906 12.2335 13.4581 12.2089C14.7226 12.2089 16.3801 12.5899 18.4334 13.3412C20.4868 14.0925 21.8062 14.4735 22.3807 14.4735C22.815 14.4735 24.2746 14.0254 26.7595 13.1373C29.1043 12.3135 31.0834 11.9727 32.7052 12.1069C37.1033 12.453 40.4046 14.1435 42.6009 17.1917C38.6701 19.5181 36.7267 22.7729 36.7652 26.9507C36.7982 30.2055 38.0104 32.913 40.3853 35.0623C41.4353 36.0431 42.6604 36.8279 44 37.3779C43.7086 38.2017 43.4008 38.9879 43.0764 39.7446ZM32.9966 1.02233C32.9966 3.57143 32.04 5.95417 30.1406 8.15713C27.8426 10.776 25.0663 12.292 22.0564 12.0532C22.017 11.7327 21.9977 11.4101 21.9986 11.0873C21.9986 8.63744 23.0872 6.01857 25.0306 3.87464C25.9981 2.7906 27.2296 1.88634 28.7222 1.16722C30.212 0.458839 31.6194 0.0670817 32.9443 0C32.9801 0.343458 32.9966 0.684234 32.9966 1.02233Z" fill="black"/>
</svg>
