<svg width="51" height="51" viewBox="0 0 51 51" fill="none" xmlns="http://www.w3.org/2000/svg">
<path d="M25.5 46.75C13.7912 46.75 4.25 37.2088 4.25 25.5C4.25 13.7912 13.7912 4.25 25.5 4.25C37.2088 4.25 46.75 13.7912 46.75 25.5C46.75 37.2088 37.2088 46.75 25.5 46.75ZM34.1275 27.0512L26.6262 19.55C26.3075 19.2312 25.9037 19.0825 25.5 19.0825C25.0963 19.0825 24.6925 19.2312 24.3738 19.55L16.8725 27.0512C16.2563 27.6675 16.2563 28.6875 16.8725 29.3037C17.4888 29.92 18.5087 29.92 19.125 29.3037L25.5 22.9287L31.875 29.3037C32.4912 29.92 33.5112 29.92 34.1275 29.3037C34.7437 28.6875 34.7437 27.6887 34.1275 27.0512Z" fill="#5245B5"/>
</svg>
