<svg width="45" height="47" viewBox="0 0 45 47" fill="none" xmlns="http://www.w3.org/2000/svg">
<path d="M39.6812 6.61337C37.1146 13.0591 30.6813 21.8212 25.2979 26.1687L22.0146 28.8209C21.5979 29.123 21.1813 29.3916 20.7146 29.5762C20.7146 29.2741 20.6979 28.9384 20.6479 28.6194C20.4646 27.2094 19.8312 25.9002 18.7146 24.7755C17.5812 23.6341 16.1979 22.9627 14.7812 22.778C14.4479 22.7612 14.1146 22.7277 13.7812 22.7612C13.9646 22.2409 14.2479 21.7541 14.5979 21.3512L17.1979 18.0444C21.4979 12.6227 30.2312 6.10979 36.6146 3.54158C37.5979 3.17229 38.5479 3.44087 39.1479 4.06194C39.7812 4.68301 40.0812 5.63979 39.6812 6.61337Z" stroke="black" stroke-width="3" stroke-linecap="round" stroke-linejoin="round"/>
<path d="M20.7155 29.5763C20.7155 31.4228 20.0155 33.1853 18.6988 34.5281C17.6822 35.5521 16.2988 36.2571 14.6488 36.4753L10.5488 36.9285C8.3155 37.1803 6.39883 35.2667 6.6655 32.9838L7.1155 28.8546C7.5155 25.1785 10.5655 22.8285 13.7988 22.7613C14.1322 22.7446 14.4822 22.7613 14.7988 22.7781C16.2155 22.9628 17.5988 23.6174 18.7322 24.7756C19.8488 25.9003 20.4822 27.2096 20.6655 28.6196C20.6822 28.9385 20.7155 29.2574 20.7155 29.5763Z" stroke="black" stroke-width="3" stroke-linecap="round" stroke-linejoin="round"/>
<path d="M27.0669 24.2888C27.0669 19.9077 23.5336 16.3491 19.1836 16.3491" stroke="black" stroke-width="3" stroke-linecap="round" stroke-linejoin="round"/>
<line x1="1" y1="46" x2="44" y2="46" stroke="black" stroke-width="2" stroke-linecap="round"/>
</svg>
