<svg width="47" height="47" viewBox="0 0 47 47" fill="none" xmlns="http://www.w3.org/2000/svg">
<circle cx="23.5" cy="23.5" r="16.5" fill="#5245B5"/>
<path d="M23.5003 3.91663C12.7021 3.91663 3.91699 12.7017 3.91699 23.5C3.91699 34.2982 12.7021 43.0833 23.5003 43.0833C34.2986 43.0833 43.0837 34.2982 43.0837 23.5C43.0837 12.7017 34.2986 3.91663 23.5003 3.91663ZM23.5003 39.1666C14.8621 39.1666 7.83366 32.1382 7.83366 23.5C7.83366 14.8618 14.8621 7.83329 23.5003 7.83329C32.1385 7.83329 39.167 14.8618 39.167 23.5C39.167 32.1382 32.1385 39.1666 23.5003 39.1666Z" fill="#5245B5"/>
<path d="M16 24.467L21.3942 31L33 18" stroke="white" stroke-width="3" stroke-linecap="round" stroke-linejoin="round"/>
</svg>
