<svg width="51" height="51" viewBox="0 0 51 51" fill="none" xmlns="http://www.w3.org/2000/svg">
<path d="M25.5 4.25C13.7912 4.25 4.25 13.7912 4.25 25.5C4.25 37.2088 13.7912 46.75 25.5 46.75C37.2088 46.75 46.75 37.2088 46.75 25.5C46.75 13.7912 37.2088 4.25 25.5 4.25ZM34.1275 23.9488L26.6262 31.45C26.3075 31.7688 25.9037 31.9175 25.5 31.9175C25.0963 31.9175 24.6925 31.7688 24.3738 31.45L16.8725 23.9488C16.2563 23.3325 16.2563 22.3125 16.8725 21.6963C17.4888 21.08 18.5087 21.08 19.125 21.6963L25.5 28.0713L31.875 21.6963C32.4912 21.08 33.5112 21.08 34.1275 21.6963C34.7437 22.3125 34.7437 23.3113 34.1275 23.9488Z" fill="#5245B5"/>
</svg>
