<svg width="35" height="35" viewBox="0 0 35 35" fill="none" xmlns="http://www.w3.org/2000/svg">
<path d="M14.6493 32.3074C13.8686 33.0883 12.3881 33.8422 11.3113 34.0037L4.68928 34.9461C4.44701 34.9731 4.20474 35 3.96247 35C2.8588 35 1.83588 34.623 1.10906 33.896C0.22074 33.0075 -0.156125 31.7151 0.0592269 30.288L1.00139 23.6643C1.1629 22.5604 1.88971 21.1064 2.69728 20.3255L14.7031 8.31672C14.9185 8.88216 15.1338 9.4476 15.4299 10.0938C15.6991 10.6593 15.9952 11.2516 16.3183 11.7901C16.5874 12.2479 16.8836 12.6787 17.1258 13.0018C17.4219 13.4595 17.7719 13.8903 17.9872 14.1327C18.1218 14.3211 18.2295 14.4558 18.2833 14.5096C18.9563 15.3174 19.737 16.0713 20.4099 16.6367C20.5984 16.8252 20.706 16.9329 20.7599 16.9598C21.1637 17.2829 21.5675 17.6061 21.9174 17.8484C22.3481 18.1715 22.7788 18.4677 23.2364 18.71C23.7748 19.0331 24.367 19.3293 24.9592 19.6255C25.5784 19.8947 26.1437 20.1371 26.709 20.3255L14.6493 32.3074ZM31.9312 15.0212L29.4547 17.5253C29.2932 17.6868 29.0778 17.7676 28.8625 17.7676C28.7817 17.7676 28.674 17.7676 28.6202 17.7407C23.1557 16.179 18.7948 11.817 17.2335 6.35115C17.1527 6.05497 17.2335 5.73186 17.4489 5.54339L19.9523 3.0393C24.044 -1.05339 27.9472 -0.972612 31.9582 3.0393C34.004 5.08565 35 7.05122 35 9.09757C34.9731 11.0362 33.9771 12.9749 31.9312 15.0212Z" fill="black"/>
</svg>
