<svg width="51" height="51" viewBox="0 0 51 51" fill="none" xmlns="http://www.w3.org/2000/svg">
<path d="M34.4038 4.25H16.5962C8.86125 4.25 4.25 8.86125 4.25 16.5962V34.3825C4.25 42.1388 8.86125 46.75 16.5962 46.75H34.3825C42.1175 46.75 46.7287 42.1388 46.7287 34.4038V16.5962C46.75 8.86125 42.1388 4.25 34.4038 4.25ZM23.2687 37.2088C22.6525 37.825 21.4837 38.42 20.6338 38.5475L15.4062 39.2912C15.215 39.3125 15.0238 39.3338 14.8325 39.3338C13.9613 39.3338 13.1538 39.0363 12.58 38.4625C11.8788 37.7612 11.5813 36.7412 11.7513 35.615L12.495 30.3875C12.6225 29.5163 13.1963 28.3688 13.8338 27.7525L23.3113 18.275C23.4813 18.7213 23.6512 19.1675 23.885 19.6775C24.0975 20.1238 24.3312 20.5913 24.5863 21.0163C24.7987 21.3775 25.0325 21.7175 25.2237 21.9725C25.4575 22.3337 25.7337 22.6737 25.9037 22.865C26.01 23.0138 26.095 23.12 26.1375 23.1625C26.6688 23.8 27.285 24.395 27.8162 24.8412C27.965 24.99 28.05 25.075 28.0925 25.0963C28.4113 25.3513 28.73 25.6063 29.0062 25.7975C29.3462 26.0525 29.6863 26.2862 30.0475 26.4775C30.4725 26.7325 30.94 26.9662 31.4075 27.2C31.8962 27.4125 32.3425 27.6038 32.7887 27.7525L23.2687 37.2088ZM36.9113 23.5662L34.9563 25.5425C34.8288 25.67 34.6587 25.7337 34.4887 25.7337C34.425 25.7337 34.34 25.7338 34.2975 25.7125C29.9837 24.48 26.5413 21.0375 25.3088 16.7238C25.245 16.49 25.3088 16.235 25.4788 16.0863L27.455 14.11C30.685 10.88 33.7662 10.9437 36.9325 14.11C38.5475 15.725 39.3338 17.2763 39.3338 18.8913C39.3125 20.4213 38.5263 21.9513 36.9113 23.5662Z" fill="#5245B5"/>
</svg>
