<svg width="55" height="55" viewBox="0 0 55 55" fill="none" xmlns="http://www.w3.org/2000/svg">
<path fill-rule="evenodd" clip-rule="evenodd" d="M27.5602 4.58301C14.9354 4.58301 4.70312 14.8153 4.70312 27.4401C4.70312 37.5372 11.2504 46.1057 20.3346 49.1307C21.4781 49.337 21.8906 48.6334 21.8906 48.0284C21.8906 47.4853 21.8723 46.0461 21.8654 44.1418C15.506 45.5213 14.1631 41.0755 14.1631 41.0755C13.1273 38.4355 11.6262 37.732 11.6262 37.732C9.55229 36.3134 11.7844 36.3455 11.7844 36.3455C14.0806 36.5059 15.2837 38.7013 15.2837 38.7013C17.3233 42.1938 20.6371 41.1855 21.9342 40.6011C22.1427 39.123 22.7385 38.1147 23.3894 37.544C18.3156 36.9688 12.9806 35.0072 12.9806 26.2461C12.9806 23.7551 13.8721 21.7109 15.3273 20.1159C15.0958 19.5361 14.3052 17.2101 15.5542 14.0659C15.5542 14.0659 17.4723 13.4495 21.8379 16.4057C23.7024 15.8985 25.6257 15.6396 27.5579 15.6357C29.4902 15.6389 31.4136 15.8978 33.2779 16.4057C37.6458 13.4472 39.5617 14.0659 39.5617 14.0659C40.8106 17.2101 40.0269 19.5361 39.7885 20.1159C41.2552 21.7109 42.1352 23.7528 42.1352 26.2461C42.1352 35.0301 36.7956 36.9597 31.7035 37.5257C32.5171 38.2315 33.2504 39.6249 33.2504 41.7561C33.2504 44.8132 33.2229 47.279 33.2229 48.0284C33.2229 48.6403 33.6308 49.3507 34.7973 49.1261C43.8769 46.0965 50.4173 37.5349 50.4173 27.4401C50.4173 14.8153 40.185 4.58301 27.5602 4.58301Z" fill="black"/>
</svg>
