<svg width="55" height="55" viewBox="0 0 55 55" fill="none" xmlns="http://www.w3.org/2000/svg">
<path d="M47.7205 27.9751C47.7205 26.5731 47.6068 25.1635 47.3643 23.7842H27.9102V31.7265H39.0506C38.5884 34.288 37.103 36.554 34.9279 37.9939V43.1473H41.5743C45.4773 39.5551 47.7205 34.2501 47.7205 27.9751Z" fill="#4285F4"/>
<path d="M27.9102 48.1264C33.4728 48.1264 38.1639 46.3 41.5818 43.1473L34.9355 37.9939C33.0863 39.2519 30.6991 39.9643 27.9177 39.9643C22.537 39.9643 17.9747 36.3342 16.3377 31.4536H9.47913V36.7662C12.9804 43.7309 20.1118 48.1264 27.9102 48.1264Z" fill="#34A853"/>
<path d="M16.3302 31.4536C15.4662 28.8921 15.4662 26.1183 16.3302 23.5568V18.2442H9.47915C6.55384 24.0721 6.55382 30.9383 9.47913 36.7662L16.3302 31.4536Z" fill="#FBBC04"/>
<path d="M27.9101 15.0385C30.8506 14.993 33.6926 16.0995 35.8221 18.1305L41.7107 12.242C37.982 8.74071 33.0332 6.81576 27.9101 6.87639C20.1118 6.87639 12.9804 11.272 9.47915 18.2442L16.3302 23.5568C17.9595 18.6686 22.5294 15.0385 27.9101 15.0385Z" fill="#EA4335"/>
</svg>
