<svg width="50" height="50" viewBox="0 0 50 50" fill="none" xmlns="http://www.w3.org/2000/svg">
<path d="M35.418 38.396H27.0846L17.8138 44.5625C16.4388 45.4792 14.5846 44.5001 14.5846 42.8335V38.396C8.33464 38.396 4.16797 34.2293 4.16797 27.9793V15.4792C4.16797 9.22917 8.33464 5.0625 14.5846 5.0625H35.418C41.668 5.0625 45.8346 9.22917 45.8346 15.4792V27.9793C45.8346 34.2293 41.668 38.396 35.418 38.396Z" stroke="black" stroke-width="3" stroke-miterlimit="10" stroke-linecap="round" stroke-linejoin="round"/>
<path d="M25.0012 23.6665V23.2291C25.0012 21.8124 25.8763 21.0624 26.7513 20.4582C27.6055 19.8749 28.4595 19.1249 28.4595 17.7499C28.4595 15.8332 26.9179 14.2915 25.0012 14.2915C23.0846 14.2915 21.543 15.8332 21.543 17.7499" stroke="black" stroke-width="3" stroke-linecap="round" stroke-linejoin="round"/>
<path d="M24.9893 28.6457H25.0081" stroke="black" stroke-width="3" stroke-linecap="round" stroke-linejoin="round"/>
</svg>
