<svg width="48" height="48" viewBox="0 0 48 48" fill="none" xmlns="http://www.w3.org/2000/svg">
<path d="M29.0598 18.9398L18.9398 29.0598C17.6398 27.7598 16.8398 25.9798 16.8398 23.9998C16.8398 20.0398 20.0398 16.8398 23.9998 16.8398C25.9798 16.8398 27.7598 17.6398 29.0598 18.9398Z" stroke="#888888" stroke-width="3" stroke-linecap="round" stroke-linejoin="round"/>
<path d="M35.6397 11.54C32.1397 8.89996 28.1397 7.45996 23.9997 7.45996C16.9397 7.45996 10.3597 11.62 5.77969 18.82C3.97969 21.64 3.97969 26.38 5.77969 29.2C7.35969 31.68 9.19969 33.82 11.1997 35.54" stroke="#888888" stroke-width="3" stroke-linecap="round" stroke-linejoin="round"/>
<path d="M16.8398 39.0599C19.1198 40.0199 21.5398 40.5399 23.9998 40.5399C31.0598 40.5399 37.6398 36.3799 42.2198 29.1799C44.0198 26.3599 44.0198 21.6199 42.2198 18.7999C41.5598 17.7599 40.8398 16.7799 40.0998 15.8599" stroke="#888888" stroke-width="3" stroke-linecap="round" stroke-linejoin="round"/>
<path d="M31.0189 25.3999C30.4989 28.2199 28.1989 30.5199 25.3789 31.0399" stroke="#888888" stroke-width="3" stroke-linecap="round" stroke-linejoin="round"/>
<path d="M18.94 29.0601L4 44.0001" stroke="#888888" stroke-width="3" stroke-linecap="round" stroke-linejoin="round"/>
<path d="M43.9986 4L29.0586 18.94" stroke="#888888" stroke-width="3" stroke-linecap="round" stroke-linejoin="round"/>
</svg>
