<svg width="44" height="41" viewBox="0 0 44 41" fill="none" xmlns="http://www.w3.org/2000/svg">
<path d="M40.3346 7.97797V28.5976C40.3346 30.2376 38.9047 31.775 37.1447 31.98L36.5396 32.0484C32.543 32.5439 26.3829 34.44 22.8629 36.2509C22.3862 36.5071 21.598 36.5071 21.103 36.2509L21.0296 36.2168C17.5096 34.423 11.368 32.5439 7.38969 32.0484L6.85795 31.98C5.09795 31.775 3.66797 30.2376 3.66797 28.5976V7.96087C3.66797 5.92796 5.44625 4.39047 7.62792 4.56131C11.4779 4.85172 17.3079 6.6626 20.5712 8.55885L21.0296 8.81504C21.5612 9.12254 22.4414 9.12254 22.973 8.81504L23.2847 8.62715C24.4397 7.9609 25.9063 7.29464 27.5013 6.69672V13.6668L31.168 11.3946L34.8346 13.6668V4.7493C35.3296 4.66389 35.8063 4.61257 36.2463 4.57841H36.3563C38.538 4.40757 40.3346 5.92797 40.3346 7.97797Z" stroke="black" stroke-width="3" stroke-linecap="round" stroke-linejoin="round"/>
<path d="M22 9.37891V35.0039" stroke="black" stroke-width="3" stroke-linecap="round" stroke-linejoin="round"/>
<path d="M34.8333 4.74902V13.6665L31.1667 11.3944L27.5 13.6665V6.69644C29.9017 5.80811 32.5783 5.09069 34.8333 4.74902Z" stroke="black" stroke-width="3" stroke-linecap="round" stroke-linejoin="round"/>
</svg>
