<svg width="52" height="56" viewBox="0 0 52 56" fill="none" xmlns="http://www.w3.org/2000/svg">
<g clip-path="url(#clip0_604_64910)" filter="url(#filter0_d_604_64910)">
<g filter="url(#filter1_d_604_64910)">
<path d="M26.0007 47.6666C14.0537 47.6666 4.33398 37.947 4.33398 26C4.33398 14.053 14.0537 4.33329 26.0007 4.33329C37.9477 4.33329 47.6673 14.053 47.6673 26C47.6673 37.947 37.9477 47.6666 26.0007 47.6666ZM26.0007 8.66663C16.4435 8.66663 8.66732 16.4428 8.66732 26C8.66732 35.5571 16.4435 43.3333 26.0007 43.3333C35.5578 43.3333 43.334 35.5571 43.334 26C43.334 16.4428 35.5578 8.66663 26.0007 8.66663Z" fill="#5245B5"/>
</g>
<path d="M28.8007 38.3651L16.4355 25.9999L28.8007 13.6348L31.8644 16.6985L22.5629 25.9999L31.8644 35.3014L28.8007 38.3651Z" fill="#5245B5"/>
</g>
<defs>
<filter id="filter0_d_604_64910" x="-4" y="0" width="60" height="60" filterUnits="userSpaceOnUse" color-interpolation-filters="sRGB">
<feFlood flood-opacity="0" result="BackgroundImageFix"/>
<feColorMatrix in="SourceAlpha" type="matrix" values="0 0 0 0 0 0 0 0 0 0 0 0 0 0 0 0 0 0 127 0" result="hardAlpha"/>
<feOffset dy="4"/>
<feGaussianBlur stdDeviation="2"/>
<feComposite in2="hardAlpha" operator="out"/>
<feColorMatrix type="matrix" values="0 0 0 0 0 0 0 0 0 0 0 0 0 0 0 0 0 0 0.25 0"/>
<feBlend mode="normal" in2="BackgroundImageFix" result="effect1_dropShadow_604_64910"/>
<feBlend mode="normal" in="SourceGraphic" in2="effect1_dropShadow_604_64910" result="shape"/>
</filter>
<filter id="filter1_d_604_64910" x="0.333984" y="4.33325" width="51.334" height="51.3334" filterUnits="userSpaceOnUse" color-interpolation-filters="sRGB">
<feFlood flood-opacity="0" result="BackgroundImageFix"/>
<feColorMatrix in="SourceAlpha" type="matrix" values="0 0 0 0 0 0 0 0 0 0 0 0 0 0 0 0 0 0 127 0" result="hardAlpha"/>
<feOffset dy="4"/>
<feGaussianBlur stdDeviation="2"/>
<feComposite in2="hardAlpha" operator="out"/>
<feColorMatrix type="matrix" values="0 0 0 0 0 0 0 0 0 0 0 0 0 0 0 0 0 0 0.25 0"/>
<feBlend mode="normal" in2="BackgroundImageFix" result="effect1_dropShadow_604_64910"/>
<feBlend mode="normal" in="SourceGraphic" in2="effect1_dropShadow_604_64910" result="shape"/>
</filter>
<clipPath id="clip0_604_64910">
<rect width="52" height="52" fill="white" transform="matrix(1 0 0 -1 0 52)"/>
</clipPath>
</defs>
</svg>
