<svg width="42" height="42" viewBox="0 0 42 42" fill="none" xmlns="http://www.w3.org/2000/svg">
<path d="M38.9583 0H2.29167C1.68388 0 1.10098 0.241443 0.671214 0.671214C0.241443 1.10098 0 1.68388 0 2.29167V38.9583C0 39.5661 0.241443 40.149 0.671214 40.5788C1.10098 41.0086 1.68388 41.25 2.29167 41.25H38.9583C39.5661 41.25 40.149 41.0086 40.5788 40.5788C41.0086 40.149 41.25 39.5661 41.25 38.9583V2.29167C41.25 1.68388 41.0086 1.10098 40.5788 0.671214C40.149 0.241443 39.5661 0 38.9583 0ZM12.2352 35.1473H6.11187V15.4619H12.2352V35.1473ZM9.17354 12.7738C8.23269 12.7738 7.33037 12.4 6.66508 11.7347C5.99979 11.0694 5.62604 10.1671 5.62604 9.22625C5.62604 8.28539 5.99979 7.38307 6.66508 6.71779C7.33037 6.0525 8.23269 5.67875 9.17354 5.67875C10.1144 5.67875 11.0167 6.0525 11.682 6.71779C12.3473 7.38307 12.721 8.28539 12.721 9.22625C12.721 10.1671 12.3473 11.0694 11.682 11.7347C11.0167 12.4 10.1144 12.7738 9.17354 12.7738ZM35.1496 35.1473H29.0331V25.575C29.0331 23.2925 28.9919 20.3569 25.8523 20.3569C22.6669 20.3569 22.1833 22.8456 22.1833 25.4146V35.1496H16.0715V15.4642H21.9381V18.1546H22.0229C22.8365 16.6077 24.8348 14.976 27.8071 14.976C34.0037 14.976 35.1473 19.0506 35.1473 24.3535L35.1496 35.1473Z" fill="black"/>
</svg>
