<svg width="50" height="50" viewBox="0 0 50 50" fill="none" xmlns="http://www.w3.org/2000/svg">
<path d="M24.1684 20.9722C22.4115 20.9722 20.974 22.4097 20.974 24.1666C20.974 25.9236 22.4115 27.3611 24.1684 27.3611C25.9253 27.3611 27.3628 25.9236 27.3628 24.1666C27.3628 22.4097 25.9253 20.9722 24.1684 20.9722ZM33.7517 20.9722C31.9948 20.9722 30.5573 22.4097 30.5573 24.1666C30.5573 25.9236 31.9948 27.3611 33.7517 27.3611C35.5087 27.3611 36.9462 25.9236 36.9462 24.1666C36.9462 22.4097 35.5087 20.9722 33.7517 20.9722ZM14.5851 20.9722C12.8281 20.9722 11.3906 22.4097 11.3906 24.1666C11.3906 25.9236 12.8281 27.3611 14.5851 27.3611C16.342 27.3611 17.7795 25.9236 17.7795 24.1666C17.7795 22.4097 16.342 20.9722 14.5851 20.9722Z" fill="black"/>
</svg>
