<svg width="47" height="47" viewBox="0 0 47 47" fill="none" xmlns="http://www.w3.org/2000/svg">
<path d="M23.5379 5.69873C17.0559 5.69873 11.7879 10.9666 11.7879 17.4487V23.1083C11.7879 24.3029 11.2788 26.1241 10.6717 27.1425L8.4196 30.8829C7.02919 33.1937 7.98877 35.7591 10.5346 36.6208C18.975 39.4408 28.0813 39.4408 36.5217 36.6208C38.8913 35.8375 39.9292 33.0371 38.6367 30.8829L36.3846 27.1425C35.7971 26.1241 35.2879 24.3029 35.2879 23.1083V17.4487C35.2879 10.9862 30.0004 5.69873 23.5379 5.69873Z" stroke="black" stroke-width="3" stroke-miterlimit="10" stroke-linecap="round"/>
<path d="M27.1638 6.26682C26.5567 6.09057 25.9301 5.95348 25.2838 5.87515C23.4038 5.64015 21.6021 5.77723 19.918 6.26682C20.4859 4.81765 21.8959 3.79932 23.5409 3.79932C25.1859 3.79932 26.5959 4.81765 27.1638 6.26682Z" stroke="black" stroke-width="2" stroke-miterlimit="10" stroke-linecap="round" stroke-linejoin="round"/>
<path d="M29.4141 37.3257C29.4141 40.5569 26.7703 43.2007 23.5391 43.2007C21.9332 43.2007 20.4449 42.5349 19.3874 41.4774C18.3299 40.4199 17.6641 38.9315 17.6641 37.3257" stroke="black" stroke-width="2" stroke-miterlimit="10"/>
<circle cx="33.7812" cy="8.8125" r="5.875" fill="#FF8787"/>
</svg>
