<svg width="45" height="45" viewBox="0 0 45 45" fill="none" xmlns="http://www.w3.org/2000/svg">
<path d="M41.25 12.1875H30" stroke="black" stroke-width="3" stroke-miterlimit="10" stroke-linecap="round" stroke-linejoin="round"/>
<path d="M11.25 12.1875H3.75" stroke="black" stroke-width="3" stroke-miterlimit="10" stroke-linecap="round" stroke-linejoin="round"/>
<path d="M18.75 18.75C22.3744 18.75 25.3125 15.8119 25.3125 12.1875C25.3125 8.56313 22.3744 5.625 18.75 5.625C15.1256 5.625 12.1875 8.56313 12.1875 12.1875C12.1875 15.8119 15.1256 18.75 18.75 18.75Z" stroke="black" stroke-width="3" stroke-miterlimit="10" stroke-linecap="round" stroke-linejoin="round"/>
<path d="M41.25 32.8125H33.75" stroke="black" stroke-width="3" stroke-miterlimit="10" stroke-linecap="round" stroke-linejoin="round"/>
<path d="M15 32.8125H3.75" stroke="black" stroke-width="3" stroke-miterlimit="10" stroke-linecap="round" stroke-linejoin="round"/>
<path d="M26.25 39.375C29.8744 39.375 32.8125 36.4369 32.8125 32.8125C32.8125 29.1881 29.8744 26.25 26.25 26.25C22.6256 26.25 19.6875 29.1881 19.6875 32.8125C19.6875 36.4369 22.6256 39.375 26.25 39.375Z" stroke="black" stroke-width="3" stroke-miterlimit="10" stroke-linecap="round" stroke-linejoin="round"/>
</svg>
