<svg width="24" height="24" viewBox="0 0 24 24" fill="none" xmlns="http://www.w3.org/2000/svg">
<path d="M10.5005 16.5C11.2884 16.5 12.0687 16.3448 12.7966 16.0433C13.5246 15.7418 14.186 15.2998 14.7431 14.7427C15.3003 14.1855 15.7423 13.5241 16.0438 12.7961C16.3453 12.0682 16.5005 11.2879 16.5005 10.5C16.5005 9.71208 16.3453 8.93187 16.0438 8.20391C15.7423 7.47596 15.3003 6.81453 14.7431 6.25737C14.186 5.70022 13.5246 5.25827 12.7966 4.95674C12.0687 4.65521 11.2884 4.50002 10.5005 4.50002C8.9092 4.50002 7.38308 5.13216 6.25786 6.25737C5.13264 7.38259 4.5005 8.90872 4.5005 10.5C4.5005 12.0913 5.13264 13.6174 6.25786 14.7427C7.38308 15.8679 8.9092 16.5 10.5005 16.5ZM16.8205 15.406L20.4005 18.986C20.4959 19.0783 20.572 19.1887 20.6244 19.3108C20.6767 19.4328 20.7042 19.564 20.7052 19.6968C20.7063 19.8296 20.6809 19.9613 20.6305 20.0841C20.5802 20.207 20.5058 20.3186 20.4119 20.4124C20.3179 20.5062 20.2062 20.5804 20.0833 20.6306C19.9604 20.6808 19.8287 20.706 19.6959 20.7048C19.5631 20.7035 19.4319 20.6758 19.3099 20.6233C19.188 20.5708 19.0777 20.4946 18.9855 20.399L15.4055 16.819C13.798 18.0669 11.7753 18.6552 9.74926 18.4642C7.72322 18.2732 5.84611 17.3173 4.50005 15.7911C3.154 14.2648 2.44019 12.283 2.50393 10.2489C2.56767 8.21492 3.40417 6.28164 4.84315 4.84266C6.28213 3.40368 8.2154 2.56718 10.2494 2.50344C12.2834 2.4397 14.2653 3.15351 15.7916 4.49957C17.3178 5.84562 18.2737 7.72273 18.4647 9.74877C18.6557 11.7748 18.0674 13.7975 16.8195 15.405L16.8205 15.406Z" fill="#697077"/>
</svg>
