<svg width="50" height="47" viewBox="0 0 50 47" fill="none" xmlns="http://www.w3.org/2000/svg">
<path d="M32.7613 23.1263C32.7613 27.6027 29.1325 31.2315 24.656 31.2315C20.1796 31.2315 16.5508 27.6027 16.5508 23.1263C16.5508 18.6498 20.1796 15.021 24.656 15.021C29.1325 15.021 32.7613 18.6498 32.7613 23.1263Z" stroke="black" stroke-width="3"/>
<path d="M45.8314 27.9046C46.8644 27.6662 47.3809 27.547 47.5984 27.2737C47.8158 27.0004 47.8158 26.5605 47.8158 25.6808V20.5714C47.8158 19.6916 47.8158 19.2518 47.5984 18.9784C47.3809 18.7051 46.8644 18.586 45.8314 18.3476C41.0323 17.2404 38.0232 12.2131 39.4339 7.53606C39.7455 6.50309 39.9013 5.9866 39.7712 5.66149C39.6411 5.33638 39.2551 5.11726 38.4833 4.67903L33.94 2.09947C33.1838 1.67013 32.8057 1.45546 32.4626 1.50796C32.1194 1.56046 31.7633 1.94219 31.051 2.70564C27.6275 6.37515 21.692 6.375 18.2684 2.70543C17.5562 1.94197 17.2 1.56024 16.8569 1.50774C16.5138 1.45523 16.1357 1.6699 15.3795 2.09925L10.8362 4.67881C10.0643 5.11702 9.67844 5.33612 9.5483 5.6612C9.41817 5.98628 9.57392 6.50282 9.88541 7.53588C11.2957 12.2131 8.28419 17.2405 3.4844 18.3477C2.4514 18.5859 1.9349 18.7051 1.71745 18.9784C1.5 19.2517 1.5 19.6916 1.5 20.5714V25.6808C1.5 26.5606 1.5 27.0004 1.71744 27.2737C1.93487 27.547 2.45138 27.6662 3.4844 27.9046C8.2835 29.0118 11.2926 34.039 9.88184 38.7161C9.57026 39.7491 9.41447 40.2656 9.54459 40.5907C9.67472 40.9158 10.0606 41.1349 10.8325 41.5731L15.3758 44.1527C16.132 44.5821 16.5102 44.7968 16.8533 44.7442C17.1965 44.6917 17.5526 44.3099 18.2647 43.5465C21.69 39.8742 27.6294 39.874 31.0548 43.5462C31.7669 44.3097 32.123 44.6915 32.4661 44.744C32.8093 44.7965 33.1874 44.5818 33.9436 44.1525L38.487 41.5729C39.2588 41.1347 39.6448 40.9155 39.7749 40.5904C39.905 40.2653 39.7492 39.7488 39.4375 38.7159C38.0262 34.039 41.033 29.0119 45.8314 27.9046Z" stroke="black" stroke-width="3" stroke-linecap="round"/>
</svg>
