<svg width="47" height="47" viewBox="0 0 47 47" fill="none" xmlns="http://www.w3.org/2000/svg">
<path d="M41.125 11.7106C34.6038 11.0644 28.0433 10.7314 21.5025 10.7314C17.625 10.7314 13.7475 10.9273 9.87 11.3189L5.875 11.7106" stroke="black" stroke-width="3" stroke-linecap="round" stroke-linejoin="round"/>
<path d="M16.6445 9.73275L17.0754 7.16734C17.3887 5.30692 17.6237 3.9165 20.9333 3.9165H26.0641C29.3737 3.9165 29.6283 5.38525 29.922 7.18692L30.3529 9.73275" stroke="black" stroke-width="3" stroke-linecap="round" stroke-linejoin="round"/>
<path d="M36.9151 17.8989L35.6422 37.6193C35.4268 40.6939 35.2505 43.0831 29.7868 43.0831H17.2143C11.7505 43.0831 11.5743 40.6939 11.3589 37.6193L10.0859 17.8989" stroke="black" stroke-width="3" stroke-linecap="round" stroke-linejoin="round"/>
<path d="M20.2305 32.3125H26.7517" stroke="black" stroke-width="3" stroke-linecap="round" stroke-linejoin="round"/>
<path d="M18.6055 24.479H28.3971" stroke="black" stroke-width="3" stroke-linecap="round" stroke-linejoin="round"/>
</svg>
