<svg width="45" height="45" viewBox="0 0 45 45" fill="none" xmlns="http://www.w3.org/2000/svg">
<path d="M16.875 18.75C18.9461 18.75 20.625 17.0711 20.625 15C20.625 12.9289 18.9461 11.25 16.875 11.25C14.8039 11.25 13.125 12.9289 13.125 15C13.125 17.0711 14.8039 18.75 16.875 18.75Z" stroke="black" stroke-width="3" stroke-linecap="round" stroke-linejoin="round"/>
<path d="M24.375 3.75H16.875C7.5 3.75 3.75 7.5 3.75 16.875V28.125C3.75 37.5 7.5 41.25 16.875 41.25H28.125C37.5 41.25 41.25 37.5 41.25 28.125V18.75" stroke="black" stroke-width="3" stroke-linecap="round" stroke-linejoin="round"/>
<path d="M33.75 15V3.75L37.5 7.5" stroke="black" stroke-width="3" stroke-linecap="round" stroke-linejoin="round"/>
<path d="M33.75 3.75L30 7.5" stroke="black" stroke-width="2.5" stroke-linecap="round" stroke-linejoin="round"/>
<path d="M5.00781 35.5311L14.2516 29.3248C15.7328 28.3311 17.8703 28.4436 19.2016 29.5873L19.8203 30.1311C21.2828 31.3873 23.6453 31.3873 25.1078 30.1311L32.9078 23.4373C34.3703 22.1811 36.7328 22.1811 38.1953 23.4373L41.2516 26.0623" stroke="black" stroke-width="3" stroke-linecap="round" stroke-linejoin="round"/>
</svg>
